:SAMPLES-PER-SECOND 30
:FULLY-SPECIFIED
:DEGREES
256
root  34.75065156 36.52537789 -14.55003783 9.555710793 -5.125227928 4.470906258
lowerback  -8.057229996 -0.3437229693 -1.482399821
upperback  -3.91486001 0.251771003 -4.815460205
thorax  0.4853120148 0.3323789239 -4.129849911
lowerneck  -5.634300232 -15.33049965 -9.840009689
upperneck  9.494130135 -20.96050072 11.15380001
head  6.002099991 -9.923999786 3.199359894
lclavicle  0 -4.497500157e-015 -2.743230041e-014
lhumerus  -48.02470016 30.54750061 60.71670151
lradius  0.02590890229 -6.507048965e-006 29.11079979
lwrist  4.824992743e-007 -3.790274832e-007 -30.75180054
lhand  -0 -36.95510101 -10.36509991
lfingers  90 7.125020027 -90
lthumb  94.77577038 -25.20481961 101.0996093
rclavicle  0 -4.497500157e-015 -2.743230041e-014
rhumerus  9.242091179 -43.76530457 -22.46239853
rradius  -5.16745672e-007 2.214343908e-008 68.17019653
rwrist  -2.867388866e-005 0.01791166887 -174.8399963
rhand  -1.768241542e-031 3.154350042 -5.80095005
rfingers  -90 -7.125020027 -90
rthumb  -84.50091829 -9.965484567 -60.9121963
rfemur  -12.87535954 14.97625446 12.06979179
rtibia  -1.409114838 -1.897684574 20.75495911
rfoot  0.4849645197 -22.73757362 -34.82108688
rtoes  3.773962694 19.65503736 -101.0955726
lfemur  -6.764194965 -17.56315613 -22.27894974
ltibia  4.859790802 -1.352619052 11.68795681
lfoot  1.21821475 -21.40541649 37.69074631
ltoes  -8.668102293 -18.09370584 -116.1452316
257
root  34.74814047 36.52472609 -14.55386304 9.523281097 -5.151666641 4.432566643
lowerback  -8.075181007 -0.3579263687 -1.540794134
upperback  -3.911789894 0.2378509939 -4.797369957
thorax  0.49752599 0.327239275 -4.078909874
lowerneck  -5.709879875 -15.2961998 -9.77779007
upperneck  9.569259644 -20.91030121 11.07330036
head  6.017290115 -9.897760391 3.166739941
lclavicle  0 -4.497500157e-015 -2.743230041e-014
lhumerus  -48.06140137 30.60680008 60.70949936
lradius  0.02607998811 -6.507048965e-006 29.13410187
lwrist  4.824992743e-007 -3.790274832e-007 -30.78759956
lhand  -4.4203722e-031 -36.98149872 -10.36349964
lfingers  90 7.125020027 -90
lthumb  94.78764474 -25.20230088 101.1276582
rclavicle  0 -4.497500157e-015 -2.743230041e-014
rhumerus  8.101429939 -43.67490005 -22.08699989
rradius  -5.16745672e-007 2.214343908e-008 69.53579712
rwrist  -2.867388866e-005 0.01753843017 -175.1419983
rhand  -1.768210677e-031 3.136149883 -5.818649769
rfingers  -90 -7.125020027 -90
rthumb  -84.51415483 -9.949050752 -60.93144592
rfemur  -12.84440804 15.02824783 12.11167812
rtibia  -1.390092254 -1.872749567 20.74093628
rfoot  0.5091761351 -22.73546028 -34.78985214
rtoes  3.792956318 19.65152032 -101.1520462
lfemur  -6.755692482 -17.56208611 -22.22932816
ltibia  4.825260162 -1.351239681 11.7372303
lfoot  1.215825677 -21.41728401 37.7281723
ltoes  -8.645420154 -18.10427197 -116.0722188
258
root  34.74510974 36.52407729 -14.55801265 9.490001678 -5.176408768 4.403233051
lowerback  -8.096810341 -0.3697720468 -1.574240446
upperback  -3.91328001 0.2246180028 -4.783909798
thorax  0.5071139932 0.323071003 -4.047049999
lowerneck  -5.794909954 -15.25979996 -9.729379654
upperneck  9.690480232 -20.86029816 11.00469971
head  6.051499844 -9.86907959 3.137029886
lclavicle  0 -4.497500157e-015 -2.743230041e-014
lhumerus  -48.09545135 30.65821457 60.67440796
lradius  0.02618883923 -6.507048965e-006 29.12175751
lwrist  4.824992743e-007 -3.790274832e-007 -30.86070061
lhand  -0 -37.03469849 -10.45030022
lfingers  90 7.125020027 -90
lthumb  94.83085653 -25.28561151 101.1923245
rclavicle  0 -4.497500157e-015 -2.743230041e-014
rhumerus  6.889960289 -43.51079941 -21.6243
rradius  -5.16745672e-007 2.214343908e-008 70.89759827
rwrist  -2.867388866e-005 0.01716900617 -175.4109955
rhand  -1.768362706e-031 3.22480011 -5.970089912
rfingers  -90 -7.125020027 -90
rthumb  -84.56717232 -9.821213906 -60.85758115
rfemur  -12.80749416 15.06890678 12.14931774
rtibia  -1.376141191 -1.834086776 20.72357941
rfoot  0.5057836771 -22.69317055 -34.84148407
rtoes  3.798479056 19.65049422 -101.1684687
lfemur  -6.726285458 -17.521492 -22.19660759
ltibia  4.81077528 -1.343277216 11.74789906
lfoot  1.203377128 -21.42751312 37.72032547
ltoes  -8.65605228 -18.09932348 -116.106438
259
root  34.74274583 36.52393912 -14.56317151 9.467899323 -5.222812653 4.39587307
lowerback  -8.123080254 -0.3697730303 -1.579810023
upperback  -3.898859978 0.2233610004 -4.760879993
thorax  0.5364509821 0.321491003 -4.019830227
lowerneck  -5.873050213 -15.22430038 -9.764309883
upperneck  9.798390388 -20.81489944 11.02569962
head  6.099890232 -9.840129852 3.143899918
lclavicle  0 -4.497500157e-015 -2.743230041e-014
lhumerus  -48.08647919 30.72929001 60.68239594
lradius  0.02624144964 -6.507048965e-006 29.12280083
lwrist  4.824992743e-007 -3.790274832e-007 -30.87229919
lhand  -4.422273508e-031 -37.0141983 -10.29049969
lfingers  90 7.125020027 -90
lthumb  94.78717414 -25.12951046 101.1559589
rclavicle  0 -4.497500157e-015 -2.743230041e-014
rhumerus  5.727149963 -43.42010117 -21.28360176
rradius  -5.16745672e-007 2.214343908e-008 72.23169708
rwrist  -2.867388866e-005 0.01680301875 -175.7859955
rhand  -1.768379041e-031 3.234179974 -6.052840233
rfingers  -90 -7.125020027 -90
rthumb  -84.60575523 -9.749444963 -60.85531019
rfemur  -12.80520153 15.08372211 12.15374565
rtibia  -1.374843001 -1.869909048 20.7340107
rfoot  0.5056897998 -22.79236603 -34.7943573
rtoes  3.821813222 19.64614169 -101.2378649
lfemur  -6.756473064 -17.55783272 -22.17816353
ltibia  4.766261578 -1.387051463 11.8230114
lfoot  1.176464319 -21.35889244 37.71712875
ltoes  -8.651916086 -18.10124949 -116.0931247
